#N canvas 4 122 1504 797 12;
#X obj 571 415 comport 1 9600;
#X msg 531 361 open, f 6;
#X msg 606 359 close;
#X obj 567 465 print;
#X msg 431 360 devices, f 8;
#X connect 0 0 3 0;
#X connect 1 0 0 0;
#X connect 2 0 0 0;
#X connect 4 0 0 0;
