#N canvas 576 1 1296 942 12;
#X obj 211 158 inlet;
#X obj 266 160 inlet;
#X obj 252 220 t b f;
#X obj 259 278 +;
#X obj 246 323 outlet;
#X connect 0 0 3 0;
#X connect 1 0 2 0;
#X connect 2 0 3 0;
#X connect 2 1 3 1;
#X connect 3 0 4 0;
