#N canvas 926 -31 1920 976 12;
#X msg 343 89 devices;
#X msg 485 89 close;
#X obj 289 184 print;
#X obj 337 224 sel 13 10;
#X obj 335 396 unpack f f f f f f;
#X obj 333 311 list tosymbol;
#X obj 334 275 cyclone/zl group 100;
#X obj 334 346 cyclone/fromsymbol;
#X msg 411 89 open 6;
#X floatatom 333 430 5 0 0 0 - - - 0;
#X floatatom 422 435 5 0 0 0 - - - 0;
#X obj 334 462 / 10;
#X obj 334 494 + 20;
#X floatatom 425 473 5 0 0 0 - - - 0;
#X obj 336 537 osc~;
#X obj 261 515 loadbang;
#X msg 261 548 440;
#X floatatom 260 576 5 0 0 0 - - - 0;
#X obj 260 608 +~;
#X obj 259 634 osc~;
#X obj 258 661 *~ 0.5;
#X obj 258 691 dac~;
#X obj 335 572 *~;
#X floatatom 483 429 5 0 0 0 - - - 0;
#X floatatom 534 431 5 0 0 0 - - - 0;
#X obj 346 132 comport 0 115200;
#X connect 0 0 25 0;
#X connect 1 0 25 0;
#X connect 3 0 6 0;
#X connect 3 2 6 0;
#X connect 4 0 9 0;
#X connect 4 1 10 0;
#X connect 4 2 23 0;
#X connect 4 3 24 0;
#X connect 5 0 7 0;
#X connect 6 0 5 0;
#X connect 7 0 4 0;
#X connect 8 0 25 0;
#X connect 9 0 11 0;
#X connect 10 0 13 0;
#X connect 11 0 12 0;
#X connect 12 0 14 0;
#X connect 13 0 22 1;
#X connect 14 0 22 0;
#X connect 15 0 16 0;
#X connect 16 0 17 0;
#X connect 17 0 18 0;
#X connect 18 0 19 0;
#X connect 19 0 20 0;
#X connect 20 0 21 0;
#X connect 22 0 18 1;
#X connect 25 0 2 0;
#X connect 25 0 3 0;
